<?xml version="1.0" standalone="no"?>
<!DOCTYPE svg PUBLIC "-//W3C//DTD SVG 20010904//EN"
 "http://www.w3.org/TR/2001/REC-SVG-20010904/DTD/svg10.dtd">
<svg version="1.0" xmlns="http://www.w3.org/2000/svg"
 width="2000.000000pt" height="1414.000000pt" viewBox="0 0 2000.000000 1414.000000"
 preserveAspectRatio="xMidYMid meet">
<metadata>
Created by potrace 1.16, written by Peter Selinger 2001-2019
</metadata>
<g transform="translate(0.000000,1414.000000) scale(0.100000,-0.100000)"
fill="#000000" stroke="none">
<path d="M14273 13613 l-4273 -3 0 -550 0 -550 4270 0 4270 0 0 -3990 0 -3989
263 -3 c144 -2 391 -2 550 0 l287 3 0 4538 0 4538 -412 6 c-227 4 -474 6 -548
4 -74 -1 -2058 -3 -4407 -4z"/>
<path d="M633 9613 l-283 -3 0 -4547 0 -4546 827 6 c454 4 2626 7 4825 7
l3998 0 0 550 0 550 -4275 0 -4275 0 0 3990 0 3990 -232 0 c-128 0 -249 2
-268 3 -19 2 -162 2 -317 0z"/>
</g>
</svg>
